<svg xmlns="http://www.w3.org/2000/svg" xmlns:xlink="http://www.w3.org/1999/xlink" viewBox="0 0 633.3 136.92"><defs><style>.cls-1{fill:#fff;}.cls-2{opacity:0.49;}.cls-3{fill:url(#linear-gradient);}.cls-4{fill:url(#linear-gradient-2);}.cls-5{fill:url(#linear-gradient-3);}.cls-6{fill:url(#linear-gradient-4);}</style><linearGradient id="linear-gradient" x1="279.03" y1="68.84" x2="300.52" y2="89.33" gradientUnits="userSpaceOnUse"><stop offset="0.09" stop-color="#ffa300"/><stop offset="0.96" stop-color="#ffdf3f"/></linearGradient><linearGradient id="linear-gradient-2" x1="284.05" y1="61.45" x2="306.64" y2="61.45" gradientUnits="userSpaceOnUse"><stop offset="0" stop-color="#d63e23"/><stop offset="1" stop-color="#ff991c"/></linearGradient><linearGradient id="linear-gradient-3" x1="284.31" y1="55.04" x2="307.87" y2="35.75" gradientUnits="userSpaceOnUse"><stop offset="0.25" stop-color="#3f7bc5"/><stop offset="0.79" stop-color="#19c2e8"/></linearGradient><linearGradient id="linear-gradient-4" x1="276.78" y1="56" x2="276.78" y2="31" gradientUnits="userSpaceOnUse"><stop offset="0" stop-color="#4539ce"/><stop offset="1" stop-color="#0090ff"/></linearGradient></defs><g id="Layer_2" data-name="Layer 2"><path class="cls-1" d="M447.22,46.65V83.46L439,89.79V40.74Z"/><path class="cls-1" d="M462.13,40.74V89.79l-8.23-6.27V46.65Z"/><path class="cls-1" d="M72.06,65.27,89.55,89.34H79.13L63,66.22H61.46V89.34H52.93V32.87h10q11.19,0,16.17,4.2a15.44,15.44,0,0,1,5.48,12.37,16.06,16.06,0,0,1-3.43,10.31A15.32,15.32,0,0,1,72.06,65.27ZM61.46,58.8h2.7q12.12,0,12.11-9.26,0-8.65-11.78-8.66h-3Z"/><path class="cls-1" d="M124,73.47H98.42a10.78,10.78,0,0,0,2.86,7A8.68,8.68,0,0,0,107.75,83a8.42,8.42,0,0,0,5.09-1.46,20.85,20.85,0,0,0,4.49-5.41l7,3.87a28,28,0,0,1-3.41,4.71A17.91,17.91,0,0,1,117,87.93a15.12,15.12,0,0,1-4.42,1.85,21.62,21.62,0,0,1-5.16.59q-8,0-12.8-5.12T89.83,71.57q0-8.46,4.68-13.68T107,52.73q7.86,0,12.44,5T124,71.53Zm-8.45-6.73q-1.73-6.58-8.31-6.59a8.58,8.58,0,0,0-2.81.46,8,8,0,0,0-2.4,1.32A8.3,8.3,0,0,0,100.14,64,9.75,9.75,0,0,0,99,66.74Z"/><path class="cls-1" d="M138.35,61.4V89.34h-8.23V61.4h-3.51V53.71h3.51V46.14l8.23-5.48V53.71h6.4V61.4Z"/><path class="cls-1" d="M154.84,53.71V74.16q0,8.85,7,8.85t7-8.85V53.71H177V74.35A22.82,22.82,0,0,1,176,81.73a12.41,12.41,0,0,1-3.55,5,17.3,17.3,0,0,1-21.18,0,12.7,12.7,0,0,1-3.62-5,20.4,20.4,0,0,1-1-7.38V53.71Z"/><path class="cls-1" d="M183.68,53.71h8.23V56.9a15.73,15.73,0,0,1,4-3.26,9.21,9.21,0,0,1,4.24-.91,13.21,13.21,0,0,1,6.8,2.12l-3.76,7.53a7.9,7.9,0,0,0-4.58-1.68q-6.72,0-6.73,10.17V89.34h-8.23Z"/><path class="cls-1" d="M209.09,53.71h8.27V57a13.45,13.45,0,0,1,9.73-4.28q6.21,0,9.69,3.91,3,3.33,3,10.87V89.34h-8.27V69.44c0-3.51-.49-5.93-1.46-7.28s-2.68-2-5.19-2c-2.74,0-4.67.9-5.82,2.7s-1.68,4.89-1.68,9.33V89.34h-8.27Z"/><path class="cls-1" d="M311.62,53.71h8.26V57a13.47,13.47,0,0,1,9.73-4.28q6.22,0,9.7,3.91,3,3.33,3,10.87V89.34H334V69.44c0-3.51-.49-5.93-1.47-7.28s-2.68-2-5.19-2q-4.1,0-5.82,2.7t-1.68,9.33V89.34h-8.26Z"/><path class="cls-1" d="M392.26,35.9V46q-7.39-6.18-15.29-6.19a19.46,19.46,0,0,0-14.67,6.26,21.1,21.1,0,0,0-6,15.22,20.57,20.57,0,0,0,6,15A19.78,19.78,0,0,0,377,82.39a18,18,0,0,0,7.65-1.46,22.39,22.39,0,0,0,3.64-2,40.63,40.63,0,0,0,4-3V86.23a30.77,30.77,0,0,1-15.37,4.14,28.33,28.33,0,0,1-20.66-8.45,28,28,0,0,1-8.53-20.56,29,29,0,0,1,7.14-19.24q8.78-10.35,22.71-10.35A28.88,28.88,0,0,1,392.26,35.9Z"/><path class="cls-1" d="M396,71.27a17.71,17.71,0,0,1,5.52-13.13,19.5,19.5,0,0,1,27,0A18.11,18.11,0,0,1,434,71.57,18,18,0,0,1,428.49,85a18.9,18.9,0,0,1-13.64,5.38,18.11,18.11,0,0,1-13.43-5.49A18.44,18.44,0,0,1,396,71.27Zm8.41.15q0,5.34,2.86,8.45a11.1,11.1,0,0,0,15.43,0,11.73,11.73,0,0,0,2.89-8.31,11.69,11.69,0,0,0-2.89-8.3,10.94,10.94,0,0,0-15.36,0A11.45,11.45,0,0,0,404.42,71.42Z"/><path class="cls-1" d="M501.24,73.47H475.71a10.83,10.83,0,0,0,2.85,7A8.69,8.69,0,0,0,485,83a8.39,8.39,0,0,0,5.08-1.46,20.65,20.65,0,0,0,4.5-5.41L501.57,80a28,28,0,0,1-3.4,4.71,18.4,18.4,0,0,1-3.84,3.21,15.3,15.3,0,0,1-4.43,1.85,21.56,21.56,0,0,1-5.16.59q-8,0-12.8-5.12t-4.83-13.68q0-8.46,4.68-13.68t12.51-5.16q7.88,0,12.44,5t4.54,13.79Zm-8.45-6.73q-1.73-6.58-8.3-6.59a8.68,8.68,0,0,0-2.82.46,8,8,0,0,0-2.4,1.32A8.47,8.47,0,0,0,477.43,64a9.21,9.21,0,0,0-1.17,2.75Z"/><path class="cls-1" d="M541,88.5c0,1.68-.06,3.17-.17,4.45a32.49,32.49,0,0,1-.45,3.38,15.05,15.05,0,0,1-3.44,6.91q-4.83,5.57-13.28,5.56A17.72,17.72,0,0,1,511.87,105,15.71,15.71,0,0,1,506.38,94h8.27a9.39,9.39,0,0,0,1.57,4.06,8.85,8.85,0,0,0,7.46,3.33q9,0,9-11.08v-5a15.38,15.38,0,0,1-11.3,5,15.19,15.19,0,0,1-11.93-5.27,19.52,19.52,0,0,1-4.68-13.35,20.54,20.54,0,0,1,4.35-13.24,15.11,15.11,0,0,1,12.37-5.78,14.37,14.37,0,0,1,11.19,5v-4H541Zm-7.9-16.9a12,12,0,0,0-2.78-8.3,9.2,9.2,0,0,0-7.21-3.18,8.86,8.86,0,0,0-7.39,3.47,12.64,12.64,0,0,0-2.45,8,12.5,12.5,0,0,0,2.45,8,8.87,8.87,0,0,0,7.39,3.4,9,9,0,0,0,7.46-3.43A12.23,12.23,0,0,0,533.05,71.6Z"/><path class="cls-1" d="M580,73.47H554.51a10.83,10.83,0,0,0,2.85,7A8.68,8.68,0,0,0,563.83,83a8.4,8.4,0,0,0,5.09-1.46,21,21,0,0,0,4.5-5.41l7,3.87a28.59,28.59,0,0,1-3.4,4.71,18.4,18.4,0,0,1-3.84,3.21,15.3,15.3,0,0,1-4.43,1.85,21.62,21.62,0,0,1-5.16.59q-8,0-12.8-5.12t-4.83-13.68q0-8.46,4.68-13.68t12.51-5.16q7.86,0,12.44,5t4.53,13.79Zm-8.45-6.73q-1.73-6.58-8.3-6.59a8.68,8.68,0,0,0-2.82.46,8,8,0,0,0-2.4,1.32A8.27,8.27,0,0,0,556.23,64a9.21,9.21,0,0,0-1.17,2.75Z"/><path class="cls-1" d="M293.05,38.84c-20.56-11.58-41.43,1.61-43.55,20.48l15.44,2.27c.65-9.07,11-15.45,20.78-8.68a4.53,4.53,0,0,1,1.15,1.16c7,10,0,20.81-9.57,20.81A12.34,12.34,0,0,1,269,71.7L257.08,81.81h0a27.9,27.9,0,0,0,20.22,8.65c20.47,0,35.81-22,23.72-43.61A20.89,20.89,0,0,0,293.05,38.84Z"/><polygon class="cls-1" points="253.4 77.21 271.96 61.48 242.37 57.13 253.4 77.21"/><path class="cls-2" d="M293.23,85.69A27.93,27.93,0,0,0,303,74.29L289.68,62.84a12.35,12.35,0,0,1-16.49,11.39l5.44,16.22A27.91,27.91,0,0,0,293.23,85.69Z"/><path class="cls-3" d="M294.86,84.55a27.84,27.84,0,0,0,8.93-12L289.76,62a12.42,12.42,0,0,1-15.67,12.5l6.54,15.8A27.82,27.82,0,0,0,294.86,84.55Z"/><path class="cls-2" d="M305.92,62.54a27.94,27.94,0,0,0-4.11-14.42l-16.64,4.49c3.19,2.23,4.57,5.74,4.6,9.92a13.2,13.2,0,0,1-5.36,10.19l16.75,5A28.58,28.58,0,0,0,305.92,62.54Z"/><path class="cls-4" d="M306.61,61.13a27.89,27.89,0,0,0-4.55-14.28l-18,5.22A12.39,12.39,0,0,1,289.68,62a12.7,12.7,0,0,1-4.54,10.13L303,76A27.8,27.8,0,0,0,306.61,61.13Z"/><path class="cls-2" d="M299.91,44.12a27.89,27.89,0,0,0-12.27-8.6L276.78,50.15a12.8,12.8,0,0,1,10.59,4.73c2.58,3.14,2.79,7.35,1.89,11l17.07-7.82A28,28,0,0,0,299.91,44.12Z"/><path class="cls-5" d="M299.48,42.13a27.89,27.89,0,0,0-12.7-8l-10.89,16A11.92,11.92,0,0,1,286.4,54a12.39,12.39,0,0,1,3.09,10.68l16.84-8.85A27.78,27.78,0,0,0,299.48,42.13Z"/><path class="cls-2" d="M278.85,32.45a27.78,27.78,0,0,0-14.65,3.17L267.58,54c2.42-3,6.61-4.16,10.79-3.94,5.09.25,8,3.24,10,6.86l5.27-19.68A31.73,31.73,0,0,0,278.85,32.45Z"/><path class="cls-2" d="M273.47,33.86c-5.2,1-11.43,5-12.89,6.18l6.54,15.5a15,15,0,0,1,9.51-6.44c5-1,8.8,1.35,11.53,4.38l.78-18.27A28.52,28.52,0,0,0,273.47,33.86Z"/><path class="cls-6" d="M277.41,31a27.8,27.8,0,0,0-16.13,5.13l6.18,18.93a12.39,12.39,0,0,1,20.43.94l4.4-20.71A27.87,27.87,0,0,0,277.41,31Z"/></g></svg>