<svg xmlns="http://www.w3.org/2000/svg" xmlns:xlink="http://www.w3.org/1999/xlink" viewBox="0 0 1000 600"><defs><style>.cls-1{fill:#324446;}.cls-2,.cls-23,.cls-9{fill:none;}.cls-3{isolation:isolate;}.cls-18,.cls-21,.cls-4{fill:#202c2c;}.cls-4{opacity:0.2;}.cls-5{fill:#fff;}.cls-10,.cls-6{fill:#e2e2e2;}.cls-7{fill:#bfc0c2;}.cls-8{fill:#fffdfe;}.cls-9{stroke:#e2e2e2;stroke-linecap:round;stroke-linejoin:round;stroke-width:3px;}.cls-10{opacity:0.4;}.cls-11{fill:#a3ddf5;}.cls-12{fill:#4f4c91;}.cls-13{fill:#2e4b7f;}.cls-14{fill:#446baf;}.cls-15{fill:#8f6eaf;}.cls-16{fill:#80b5e1;}.cls-17{fill:#3a356f;}.cls-19{fill:#171443;}.cls-20{clip-path:url(#clip-path);}.cls-21{opacity:0.6;}.cls-21,.cls-26{mix-blend-mode:multiply;}.cls-22{fill:#4d6565;}.cls-23{stroke:#ffcb58;stroke-miterlimit:10;stroke-width:6px;}.cls-24{fill:#ffcb58;}.cls-25{clip-path:url(#clip-path-2);}.cls-27{fill:#eaaf39;}.cls-28{fill:#59a67a;}.cls-29{fill:#86c98c;}.cls-30{fill:#498d68;}.cls-31{fill:#a8d38f;}</style><clipPath id="clip-path"><polygon class="cls-1" points="502.61 251.34 502.61 244.08 488.43 244.08 408.06 201.2 327.69 244.08 313.52 244.08 313.52 251.34 313.52 251.64 408.06 302.08 502.61 251.64 502.61 251.34"/></clipPath><clipPath id="clip-path-2"><path class="cls-2" d="M363.05,339.15a4.5,4.5,0,0,1-4.5,4.49h0a4.49,4.49,0,0,1-4.49-4.49V323.92a4.49,4.49,0,0,1,4.49-4.49h0a4.5,4.5,0,0,1,4.5,4.49Z"/></clipPath></defs><g class="cls-3"><g id="Layer_1" data-name="Layer 1"><polygon class="cls-4" points="514.2 290.75 422.94 339.28 600.82 435.56 692.3 387.72 514.2 290.75"/><polygon class="cls-5" points="691.5 370.52 691.5 387.32 642.52 383.19 691.5 370.52"/><polygon class="cls-5" points="520.94 294.15 448.33 332.42 618.89 425.6 691.5 387.32 520.94 294.15"/><polygon class="cls-6" points="618.89 425.6 618.89 380.61 448.33 315.62 448.33 332.42 618.89 425.6"/><polygon class="cls-7" points="520.94 277.34 448.33 315.62 618.89 408.79 691.5 370.52 520.94 277.34"/><polygon class="cls-5" points="691.5 370.52 691.5 387.32 642.52 383.19 691.5 370.52"/><polygon class="cls-5" points="520.94 294.15 448.33 332.42 618.89 425.6 691.5 387.32 520.94 294.15"/><polygon class="cls-6" points="618.89 425.6 618.89 380.61 448.33 315.62 448.33 332.42 618.89 425.6"/><polygon class="cls-7" points="520.94 277.34 448.33 315.62 618.89 408.79 691.5 370.52 520.94 277.34"/><path class="cls-8" d="M497.5,158.52c-11.89,0-21.52,5.41-21.52,12.09v136c0,6.68,9.63,12.09,21.52,12.09S519,313.33,519,306.65v-136C519,163.93,509.38,158.52,497.5,158.52Z"/><line class="cls-9" x1="483.49" y1="171.8" x2="483.49" y2="305.62"/><line class="cls-9" x1="494.48" y1="178.91" x2="494.48" y2="312.73"/><line class="cls-9" x1="508.05" y1="173.73" x2="508.05" y2="307.56"/><path class="cls-8" d="M637.79,229c-11.89,0-21.53,5.41-21.53,12.09v136c0,6.68,9.64,12.09,21.52,12.09s21.53-5.41,21.53-12.09v-136C659.31,234.4,649.67,229,637.79,229Z"/><line class="cls-9" x1="623.77" y1="242.26" x2="623.77" y2="376.08"/><line class="cls-9" x1="634.76" y1="249.37" x2="634.76" y2="383.19"/><line class="cls-9" x1="648.34" y1="244.2" x2="648.34" y2="378.02"/><path class="cls-8" d="M565.38,195.37c-11.89,0-21.52,5.41-21.52,12.09v136c0,6.68,9.63,12.09,21.52,12.09s21.52-5.41,21.52-12.09v-136C586.9,200.78,577.26,195.37,565.38,195.37Z"/><line class="cls-9" x1="551.37" y1="208.64" x2="551.37" y2="342.47"/><line class="cls-9" x1="562.36" y1="215.76" x2="562.36" y2="349.58"/><line class="cls-9" x1="575.93" y1="210.58" x2="575.93" y2="344.4"/><polygon class="cls-5" points="691.5 212.13 691.5 228.94 642.52 224.81 691.5 212.13"/><polygon class="cls-5" points="520.94 135.76 448.33 174.03 618.89 267.21 691.5 228.94 520.94 135.76"/><polygon class="cls-6" points="618.89 267.21 618.89 222.22 448.33 157.23 448.33 174.03 618.89 267.21"/><polygon class="cls-7" points="520.94 118.95 448.33 157.23 618.89 250.4 691.5 212.13 520.94 118.95"/><polygon class="cls-7" points="599.89 96 526.64 123.15 464.78 154.66 575.93 180.2 599.89 96"/><polygon class="cls-6" points="599.89 96 547.97 122.02 619.04 237.22 676.22 207.03 599.89 96"/><polygon class="cls-5" points="619.25 237.09 548.78 121.37 464.78 154.66 619.25 237.09"/><polygon class="cls-10" points="601.79 221.97 545.02 128.74 477.99 155.31 601.79 221.97"/><polygon class="cls-11" points="627.65 422.61 391.43 288.38 202.16 384.45 438.36 518.69 627.65 422.61"/><polygon class="cls-12" points="423.48 320.24 392.81 302.63 231.71 384.41 262.37 402.03 423.48 320.24"/><polygon class="cls-13" points="202.16 384.45 438.36 518.69 440.35 544.46 204.06 409.13 202.16 384.45"/><polygon class="cls-14" points="440.35 544.46 629.76 450 627.65 422.61 438.36 518.69 440.35 544.46"/><path class="cls-12" d="M355.23,411.41a.65.65,0,0,0-.06-.78.67.67,0,0,0-.06-.79,844.57,844.57,0,0,0-.12-1.59.67.67,0,0,0-.06-.78.7.7,0,0,0-.06-.8,57.5,57.5,0,0,1-.13-1.57c.33-.48,0-1.09-1-1.54L327.67,389a5,5,0,0,0-3.86-.21L299,401.63a1.36,1.36,0,0,0-.76,1.76,77.17,77.17,0,0,0,.13,1.6.88.88,0,0,0,.05.76,1,1,0,0,0,.07.81,1,1,0,0,0,.06.8.91.91,0,0,0,.06.77,1,1,0,0,0,.06.79,1,1,0,0,0,.06.78,1.07,1.07,0,0,0,.66,1.33l26.35,14.91a4.83,4.83,0,0,0,3.86.21l25.3-13.59A.73.73,0,0,0,355.23,411.41Z"/><path class="cls-15" d="M353.75,403.56c1.23.59,1.51,1.42.6,1.89L329.07,419a5.09,5.09,0,0,1-3.88-.19l-26.33-14.93c-1.24-.58-.76-1.82.14-2.29l24.81-12.83a5,5,0,0,1,3.86.21Z"/><path class="cls-12" d="M335.14,392.75l26.34,14.93a5,5,0,0,0,3.88.19l25.29-13.59a.73.73,0,0,0,.33-1.15.67.67,0,0,0-.06-.78.68.68,0,0,0-.06-.79.68.68,0,0,0-.06-.79.7.7,0,0,0-.06-.8.68.68,0,0,0-.06-.78.7.7,0,0,0-.06-.79.68.68,0,0,0-.06-.78.72.72,0,0,0-.07-.81c.33-.47,0-1.08-1-1.53l-26.09-14.55a5,5,0,0,0-3.85-.21l-24.82,12.83a1.35,1.35,0,0,0-.74,1.76.94.94,0,0,0,.06.8.89.89,0,0,0,.06.78.91.91,0,0,0,.06.79.94.94,0,0,0,.06.8.87.87,0,0,0,.06.77.93.93,0,0,0,.06.8.91.91,0,0,0,.07.79.86.86,0,0,0,.06.78A1.05,1.05,0,0,0,335.14,392.75Z"/><path class="cls-16" d="M389.5,385.28c1.23.57,1.5,1.41.6,1.9l-25.29,13.59a5.08,5.08,0,0,1-3.86-.19l-26.36-14.94c-1.22-.58-.74-1.82.16-2.29l24.82-12.83a5,5,0,0,1,3.85.21Z"/><path class="cls-12" d="M425.24,367l-26.08-14.54a5,5,0,0,0-3.85-.22l-24.82,12.85a1.34,1.34,0,0,0-.75,1.76.94.94,0,0,0,.06.77,1,1,0,0,0,.06.8,1,1,0,0,0,.06.8.94.94,0,0,0,.06.77,1,1,0,0,0,.06.8,1,1,0,0,0,.06.79,1,1,0,0,0,.07.8.94.94,0,0,0,.05.77,1.05,1.05,0,0,0,.67,1.32l26.35,14.94a5,5,0,0,0,3.86.19L426.39,376a.72.72,0,0,0,.34-1.14.69.69,0,0,0-.07-.79,14018250605005.81,14018250605005.81,0,0,0-.12-1.58.68.68,0,0,0-.06-.8.67.67,0,0,0-.06-.78.68.68,0,0,0-.06-.79.7.7,0,0,0-.06-.8.68.68,0,0,0-.06-.78C426.55,368.05,426.2,367.44,425.24,367Z"/><path class="cls-16" d="M425.25,367c1.22.58,1.5,1.43.59,1.91l-25.29,13.59a5,5,0,0,1-3.86-.2l-26.34-14.92c-1.24-.59-.75-1.84.14-2.29l24.82-12.85a5,5,0,0,1,3.85.22Z"/><path class="cls-12" d="M461,348.71l-26.07-14.53a5,5,0,0,0-3.86-.22L406.24,346.8a1.33,1.33,0,0,0-.75,1.76,54.13,54.13,0,0,1,.13,1.58.89.89,0,0,0,.06.79.86.86,0,0,0,.06.78.88.88,0,0,0,.06.79,14018250604253.18,14018250604253.18,0,0,0,.12,1.58.91.91,0,0,0,.06.79,1,1,0,0,0,.67,1.31L433,371.1a4.89,4.89,0,0,0,3.85.2l25.3-13.58a.74.74,0,0,0,.34-1.15.7.7,0,0,0-.06-.8.67.67,0,0,0-.07-.79.64.64,0,0,0-.06-.78.68.68,0,0,0-.06-.8.64.64,0,0,0-.06-.77.7.7,0,0,0-.06-.8.7.7,0,0,0-.06-.8.67.67,0,0,0-.06-.78C462.31,349.76,462,349.15,461,348.71Z"/><path class="cls-16" d="M461,348.71c1.22.57,1.49,1.41.59,1.9l-25.3,13.6a4.94,4.94,0,0,1-3.85-.22L406.1,349.07c-1.24-.57-.76-1.83.14-2.27L431.06,334a4.94,4.94,0,0,1,3.85.22Z"/><path class="cls-12" d="M393.58,435.31a.68.68,0,0,0-.06-.79.65.65,0,0,0-.07-.78.67.67,0,0,0-.06-.8,813.27,813.27,0,0,0-.12-1.57.68.68,0,0,0-.06-.8.65.65,0,0,0-.06-.78.67.67,0,0,0-.06-.79c.32-.48,0-1.1-1-1.54L366,412.91a5,5,0,0,0-3.86-.21l-24.82,12.83a1.33,1.33,0,0,0-.75,1.75,1,1,0,0,0,.06.8,1,1,0,0,0,.06.81.92.92,0,0,0,.06.76,1,1,0,0,0,.06.8,1,1,0,0,0,.06.8.94.94,0,0,0,.06.77,1,1,0,0,0,.06.8,1,1,0,0,0,.06.78,1,1,0,0,0,.67,1.32l26.35,14.92a4.87,4.87,0,0,0,3.86.2l25.29-13.58A.73.73,0,0,0,393.58,435.31Z"/><path class="cls-16" d="M392.1,427.46c1.22.58,1.5,1.42.59,1.89l-25.28,13.58a5,5,0,0,1-3.87-.18l-26.33-14.93c-1.24-.58-.76-1.82.13-2.29l24.82-12.83a5,5,0,0,1,3.86.21Z"/><path class="cls-12" d="M373.49,416.65l26.34,14.93a5,5,0,0,0,3.87.19L429,418.18a.73.73,0,0,0,.33-1.15,14018250604230.7,14018250604230.7,0,0,1-.12-1.58.68.68,0,0,0-.06-.78.74.74,0,0,0-.06-.8.72.72,0,0,0-.06-.79.7.7,0,0,0-.06-.78.72.72,0,0,0-.06-.79.74.74,0,0,0-.06-.8c.31-.47,0-1.09-1-1.53l-26.08-14.55a5,5,0,0,0-3.86-.21l-24.82,12.82a1.36,1.36,0,0,0-.74,1.77.91.91,0,0,0,.07.79,7009125302429.84,7009125302429.84,0,0,1,.12,1.58.91.91,0,0,0,.06.79.89.89,0,0,0,.06.78.93.93,0,0,0,.06.8.91.91,0,0,0,.06.79.89.89,0,0,0,.06.78A1.07,1.07,0,0,0,373.49,416.65Z"/><path class="cls-16" d="M427.84,409.18c1.23.57,1.51,1.41.61,1.9l-25.3,13.59a5.13,5.13,0,0,1-3.86-.19l-26.35-14.94c-1.22-.58-.75-1.82.15-2.3l24.83-12.83a5,5,0,0,1,3.85.22Z"/><path class="cls-12" d="M463.58,390.88l-26.07-14.54a5,5,0,0,0-3.86-.21L408.83,389a1.36,1.36,0,0,0-.75,1.76,1,1,0,0,0,.06.78,64.64,64.64,0,0,1,.13,1.6.94.94,0,0,0,.06.77,414.36,414.36,0,0,0,.12,1.58,1,1,0,0,0,.06.8,1,1,0,0,0,.06.78,1,1,0,0,0,.67,1.32l26.34,14.94a5.08,5.08,0,0,0,3.86.19l25.3-13.6a.71.71,0,0,0,.33-1.14.7.7,0,0,0-.06-.8.68.68,0,0,0-.06-.78.7.7,0,0,0-.06-.79.72.72,0,0,0-.06-.8.7.7,0,0,0-.06-.79.68.68,0,0,0-.06-.78.7.7,0,0,0-.07-.8.65.65,0,0,0-.06-.78C464.9,392,464.55,391.34,463.58,390.88Z"/><path class="cls-16" d="M463.58,390.88c1.24.59,1.51,1.44.61,1.91l-25.29,13.6a5,5,0,0,1-3.86-.2L408.7,391.26c-1.24-.59-.76-1.83.13-2.29l24.83-12.84a5,5,0,0,1,3.85.21Z"/><path class="cls-12" d="M499.33,372.61l-26.07-14.54a5,5,0,0,0-3.87-.21l-24.81,12.83a1.34,1.34,0,0,0-.74,1.76.92.92,0,0,0,.06.79.94.94,0,0,0,.06.8.89.89,0,0,0,.06.78,813.27,813.27,0,0,0,.12,1.57,1,1,0,0,0,.07.81.87.87,0,0,0,.06.78.86.86,0,0,0,.06.78,1,1,0,0,0,.66,1.32L471.33,395a5,5,0,0,0,3.86.2l25.3-13.59a.73.73,0,0,0,.33-1.15,14018250604167,14018250604167,0,0,1-.12-1.58.65.65,0,0,0-.06-.78.68.68,0,0,0-.06-.8.65.65,0,0,0-.06-.77.7.7,0,0,0-.06-.8.7.7,0,0,0-.06-.8.66.66,0,0,0-.07-.78C500.65,373.66,500.3,373.05,499.33,372.61Z"/><path class="cls-16" d="M499.34,372.61c1.23.57,1.49,1.41.6,1.89l-25.3,13.61a5,5,0,0,1-3.86-.22L444.45,373c-1.24-.57-.76-1.82.13-2.27l24.83-12.83a4.94,4.94,0,0,1,3.85.21Z"/><path class="cls-12" d="M437.9,458.75a.67.67,0,0,0-.06-.79.65.65,0,0,0-.06-.78.7.7,0,0,0-.06-.81.67.67,0,0,0-.06-.79.64.64,0,0,0-.06-.77.7.7,0,0,0-.06-.81.65.65,0,0,0-.06-.77.68.68,0,0,0-.06-.79c.31-.48,0-1.1-1-1.55l-26.08-14.55a5,5,0,0,0-3.86-.2L381.67,449a1.33,1.33,0,0,0-.76,1.75,14192662923306.7,14192662923306.7,0,0,1,.12,1.6.94.94,0,0,0,.06.77,1,1,0,0,0,.06.8,1,1,0,0,0,.07.8.87.87,0,0,0,.06.77.94.94,0,0,0,.06.8.93.93,0,0,0,.06.78,1,1,0,0,0,.66,1.32l26.36,14.91a4.8,4.8,0,0,0,3.85.21l25.3-13.58A.72.72,0,0,0,437.9,458.75Z"/><path class="cls-16" d="M436.42,450.89c1.23.59,1.51,1.42.6,1.89l-25.28,13.59a5,5,0,0,1-3.87-.19l-26.34-14.92c-1.24-.58-.76-1.82.14-2.29l24.81-12.83a5,5,0,0,1,3.86.2Z"/><path class="cls-12" d="M417.81,440.08,444.15,455a5,5,0,0,0,3.88.19l25.29-13.58a.73.73,0,0,0,.34-1.15.7.7,0,0,0-.07-.79,14018250604700.73,14018250604700.73,0,0,1-.12-1.58.7.7,0,0,0-.06-.8.67.67,0,0,0-.06-.78.67.67,0,0,0-.06-.78.7.7,0,0,0-.06-.79.71.71,0,0,0-.06-.8c.32-.47,0-1.09-1-1.54l-26.07-14.54a5,5,0,0,0-3.86-.22L417.4,430.68a1.36,1.36,0,0,0-.73,1.77,14018250604241.28,14018250604241.28,0,0,0,.12,1.58.92.92,0,0,0,.06.79.92.92,0,0,0,.06.79.89.89,0,0,0,.06.78.94.94,0,0,0,.06.8.89.89,0,0,0,.06.78.88.88,0,0,0,.06.78A1.07,1.07,0,0,0,417.81,440.08Z"/><path class="cls-16" d="M472.16,432.61c1.24.57,1.51,1.42.61,1.91L447.48,448.1a5.06,5.06,0,0,1-3.87-.19L417.26,433c-1.22-.58-.75-1.82.16-2.29l24.82-12.83a5,5,0,0,1,3.85.22Z"/><path class="cls-12" d="M507.91,414.32l-26.07-14.54a5,5,0,0,0-3.86-.21l-24.82,12.84a1.34,1.34,0,0,0-.75,1.76,1,1,0,0,0,.06.78,1,1,0,0,0,.06.8,1,1,0,0,0,.06.79,1,1,0,0,0,.06.78,1.06,1.06,0,0,0,.06.8,1,1,0,0,0,.06.78,1.05,1.05,0,0,0,.06.8,1,1,0,0,0,.06.78,1,1,0,0,0,.68,1.31l26.34,14.94a5,5,0,0,0,3.86.2l25.29-13.6c.55-.3.62-.73.33-1.14a.68.68,0,0,0-.06-.8,813.27,813.27,0,0,0-.12-1.57.7.7,0,0,0-.06-.8.68.68,0,0,0-.06-.79.67.67,0,0,0-.06-.78.7.7,0,0,0-.06-.8.68.68,0,0,0-.06-.79C509.22,415.38,508.87,414.78,507.91,414.32Z"/><path class="cls-16" d="M507.91,414.32c1.23.59,1.5,1.44.6,1.91l-25.28,13.59a5,5,0,0,1-3.87-.19L453,414.7c-1.24-.59-.75-1.84.14-2.29L478,399.56a5,5,0,0,1,3.85.22Z"/><path class="cls-12" d="M543.65,396l-26.07-14.53a5,5,0,0,0-3.86-.21l-24.81,12.83a1.34,1.34,0,0,0-.75,1.76,1,1,0,0,0,.06.79.94.94,0,0,0,.07.8.86.86,0,0,0,.06.78.86.86,0,0,0,.06.78.91.91,0,0,0,.06.79.94.94,0,0,0,.06.8.89.89,0,0,0,.06.78.91.91,0,0,0,.06.79,1,1,0,0,0,.67,1.32l26.34,14.91a4.93,4.93,0,0,0,3.85.21l25.3-13.59a.72.72,0,0,0,.33-1.15,21027375907103,21027375907103,0,0,1-.18-2.37.65.65,0,0,0-.06-.79.64.64,0,0,0-.06-.78.67.67,0,0,0-.06-.8,813.27,813.27,0,0,0-.12-1.57C545,397.1,544.62,396.49,543.65,396Z"/><path class="cls-16" d="M543.67,396c1.22.58,1.49,1.42.59,1.9L519,411.54a4.85,4.85,0,0,1-3.85-.22L488.77,396.4c-1.23-.57-.76-1.82.14-2.27l24.82-12.83a4.93,4.93,0,0,1,3.85.21Z"/><path class="cls-12" d="M476.91,482.59a.67.67,0,0,0-.06-.78,69.52,69.52,0,0,0-.13-1.59,813.27,813.27,0,0,0-.12-1.57.68.68,0,0,0-.06-.8.65.65,0,0,0-.06-.78.67.67,0,0,0-.06-.79c.32-.47,0-1.09-1-1.54l-26.08-14.55a5,5,0,0,0-3.86-.21l-24.82,12.83a1.35,1.35,0,0,0-.76,1.76,14192662923332.78,14192662923332.78,0,0,1,.12,1.6,1,1,0,0,0,.06.77,1,1,0,0,0,.07.8,1,1,0,0,0,.06.8.91.91,0,0,0,.06.77,1,1,0,0,0,.06.8.94.94,0,0,0,.06.77,1.06,1.06,0,0,0,.67,1.33l26.35,14.91a4.83,4.83,0,0,0,3.86.21l25.29-13.59A.73.73,0,0,0,476.91,482.59Z"/><path class="cls-16" d="M475.43,474.74c1.22.59,1.5,1.42.59,1.89l-25.28,13.59a5.06,5.06,0,0,1-3.87-.19L420.54,475.1c-1.24-.58-.76-1.82.13-2.29L445.49,460a5,5,0,0,1,3.86.21Z"/><path class="cls-12" d="M456.82,463.93l26.34,14.93a5,5,0,0,0,3.87.19l25.29-13.59a.73.73,0,0,0,.34-1.15.68.68,0,0,0-.06-.78,4672750201476,4672750201476,0,0,1-.12-1.58.72.72,0,0,0-.06-.8.68.68,0,0,0-.06-.78.72.72,0,0,0-.06-.79.7.7,0,0,0-.06-.78.72.72,0,0,0-.07-.8c.32-.47,0-1.09-1-1.54l-26.08-14.55a5,5,0,0,0-3.86-.21l-24.82,12.83a1.35,1.35,0,0,0-.74,1.77.92.92,0,0,0,.06.79.93.93,0,0,0,.06.78,1,1,0,0,0,.06.8,1,1,0,0,0,.06.79.9.9,0,0,0,.06.77,1,1,0,0,0,.06.8,1,1,0,0,0,.06.79.89.89,0,0,0,.07.78A1,1,0,0,0,456.82,463.93Z"/><path class="cls-16" d="M511.17,456.46c1.24.57,1.5,1.41.61,1.9L486.48,472a5,5,0,0,1-3.86-.19l-26.35-14.94c-1.22-.58-.75-1.82.15-2.29l24.82-12.83a5,5,0,0,1,3.86.21Z"/><path class="cls-12" d="M546.91,438.17l-26.07-14.55a5,5,0,0,0-3.86-.21l-24.82,12.85a1.35,1.35,0,0,0-.75,1.76.94.94,0,0,0,.06.77,1,1,0,0,0,.07.81,1,1,0,0,0,.06.79.94.94,0,0,0,.06.77,1,1,0,0,0,.06.8,1,1,0,0,0,.06.79,1,1,0,0,0,.06.8.94.94,0,0,0,.06.77,1,1,0,0,0,.67,1.32l26.34,14.94a5,5,0,0,0,3.86.19l25.3-13.59a.72.72,0,0,0,.33-1.15.7.7,0,0,0-.06-.8,6921938580306.19,6921938580306.19,0,0,1-.12-1.56.73.73,0,0,0-.06-.81.68.68,0,0,0-.06-.78,69.52,69.52,0,0,0-.13-1.59.65.65,0,0,0-.06-.78C548.23,439.23,547.88,438.62,546.91,438.17Z"/><path class="cls-16" d="M546.92,438.17c1.23.58,1.49,1.43.6,1.91l-25.29,13.59a5,5,0,0,1-3.86-.2L492,438.55c-1.23-.59-.75-1.84.14-2.29L517,423.41a5,5,0,0,1,3.85.21Z"/><path class="cls-12" d="M582.66,419.89l-26.07-14.53a5,5,0,0,0-3.87-.22L527.91,418a1.35,1.35,0,0,0-.75,1.76,75.45,75.45,0,0,0,.13,1.58.92.92,0,0,0,.06.79.9.9,0,0,0,.06.78,1,1,0,0,0,.06.79,1,1,0,0,0,.06.8.93.93,0,0,0,.06.78,1,1,0,0,0,.06.79,1,1,0,0,0,.68,1.31l26.33,14.92a4.91,4.91,0,0,0,3.86.2l25.3-13.58a.74.74,0,0,0,.33-1.16,4672750201613,4672750201613,0,0,0-.12-1.58.67.67,0,0,0-.06-.78.7.7,0,0,0-.06-.8.65.65,0,0,0-.06-.77.7.7,0,0,0-.06-.8.68.68,0,0,0-.06-.79.67.67,0,0,0-.07-.79C584,421,583.63,420.33,582.66,419.89Z"/><path class="cls-16" d="M582.67,419.89c1.23.57,1.49,1.41.6,1.9L558,435.39a5,5,0,0,1-3.86-.22l-26.33-14.93c-1.24-.56-.76-1.81.13-2.26l24.83-12.84a4.94,4.94,0,0,1,3.85.22Z"/><polygon class="cls-17" points="261.97 396.95 236.19 382.13 231.71 384.41 262.37 402.03 423.48 320.24 418.61 317.45 261.97 396.95"/><ellipse class="cls-4" cx="409.66" cy="291.37" rx="60.96" ry="34.93"/><path class="cls-18" d="M350.29,228.69v60c0,18.49,26.68,33.48,59.59,33.48s59.58-15,59.58-33.48v-60Z"/><polygon class="cls-19" points="502.61 251.34 502.61 244.08 488.43 244.08 408.06 201.2 327.69 244.08 313.52 244.08 313.52 251.34 313.52 251.64 408.06 302.08 502.61 251.64 502.61 251.34"/><polygon class="cls-1" points="502.61 251.34 502.61 244.08 488.43 244.08 408.06 201.2 327.69 244.08 313.52 244.08 313.52 251.34 313.52 251.64 408.06 302.08 502.61 251.64 502.61 251.34"/><g class="cls-20"><rect class="cls-21" x="408.06" y="189.06" width="118.45" height="153.46"/></g><polygon class="cls-22" points="408.06 193.64 313.52 244.08 408.06 294.52 502.61 244.08 408.06 193.64"/><polyline class="cls-23" points="409.55 240.07 358.35 267.72 358.35 314.99"/><path class="cls-24" d="M363.05,339.15a4.5,4.5,0,0,1-4.5,4.49h0a4.49,4.49,0,0,1-4.49-4.49V323.92a4.49,4.49,0,0,1,4.49-4.49h0a4.5,4.5,0,0,1,4.5,4.49Z"/><g class="cls-25"><g class="cls-26"><path class="cls-27" d="M344.57,319.79c8.87,5.7,21.07,5.52,29.25-1.34a2.64,2.64,0,0,0,0-3.71,2.68,2.68,0,0,0-3.71,0c-6.39,5.35-16.13,4.86-22.89.52-2.85-1.84-5.49,2.71-2.65,4.53Z"/></g></g><path class="cls-24" d="M364.36,315.44a5.81,5.81,0,1,1-5.81-5.81A5.81,5.81,0,0,1,364.36,315.44Z"/><path class="cls-27" d="M415.53,241.53c0,3.09-4.11,5.59-9.18,5.59s-9.18-2.5-9.18-5.59,4.11-5.59,9.18-5.59S415.53,238.44,415.53,241.53Z"/><path class="cls-24" d="M413.64,240c0,2.45-3.26,4.44-7.29,4.44s-7.29-2-7.29-4.44,3.27-4.44,7.29-4.44S413.64,237.59,413.64,240Z"/><polygon class="cls-28" points="736.51 341.62 680.43 309.32 561.3 369.53 617.38 401.83 736.51 341.62"/><polygon class="cls-29" points="728.91 342.16 679.04 313.44 567.75 369.78 617.62 398.5 728.91 342.16"/><polygon class="cls-13" points="561.8 376.54 617.88 408.84 617.38 401.83 561.3 369.53 561.8 376.54"/><polygon class="cls-14" points="617.38 401.83 617.88 408.84 737 348.5 736.51 341.62 617.38 401.83"/><path class="cls-28" d="M651.26,370.31c-15.81,1.13-29.15-5.26-29.8-14.28s11.66-17.24,27.47-18.36,29.15,5.26,29.79,14.28S667.07,369.18,651.26,370.31Z"/><path class="cls-28" d="M611.32,379.92c-6.52.46-12-2.17-12.28-5.88s4.8-7.1,11.32-7.57,12,2.17,12.27,5.88S617.83,379.45,611.32,379.92Z"/><path class="cls-28" d="M688.78,343.19c-6.51.46-12-2.17-12.27-5.88s4.8-7.1,11.31-7.57,12,2.17,12.27,5.89S695.29,342.73,688.78,343.19Z"/><path class="cls-30" d="M667.59,359.14l2,.77c.61.23.59.57-.06,1l-.91.66a1.93,1.93,0,0,1-1.88.34l-2-.78a43.51,43.51,0,0,1-5.39,3c-2.89,1.41-4.64,2-5.27,1.75a1.54,1.54,0,0,1-.33-.23l-2.54-2.46c-.12-.18-.11-.32.06-.43-.07,0,1-.35,3.25-1.16a35.56,35.56,0,0,0,5.29-2.37l-8.93-3.41a75.48,75.48,0,0,1-8.11,2.44,17.24,17.24,0,0,1-9.59-.45c-3-1.16-4.14-2.77-3.38-4.83a7.8,7.8,0,0,1,3.53-3.85l-2.23-.85c-.61-.24-.55-.56.19-1l1-.59a2.31,2.31,0,0,1,2-.27l2.21.84q2.12-1.08,5.37-2.36,4.35-1.71,5.31-1.35a.69.69,0,0,1,.33.27l1.41,2.06a.26.26,0,0,1-.1.4c.07,0-1,.29-3.07,1a24.45,24.45,0,0,0-4.51,1.8l8.34,3.17a87,87,0,0,1,8.42-2.37,17,17,0,0,1,9.13.29q4.07,1.53,3.43,4.44A8.49,8.49,0,0,1,667.59,359.14Zm-21.72-5.52-7.43-2.83c-1.79,1.57-1.74,2.71.13,3.43Q641.06,355.17,645.87,353.62Zm8.7.93,7.82,3c1.57-1.64,1.4-2.81-.5-3.53Q659.4,353,654.57,354.55Z"/><path class="cls-31" d="M667.47,357.51l2,.77c.6.23.58.57-.06,1l-.92.66a1.93,1.93,0,0,1-1.88.34l-2-.78a43.51,43.51,0,0,1-5.39,3c-2.88,1.41-4.64,2-5.26,1.75a1.17,1.17,0,0,1-.33-.23l-2.55-2.46a.28.28,0,0,1,.06-.44c-.07.05,1-.34,3.26-1.15a35,35,0,0,0,5.29-2.37l-8.94-3.41a75.48,75.48,0,0,1-8.11,2.44,17.2,17.2,0,0,1-9.58-.45c-3-1.16-4.15-2.77-3.39-4.83a7.83,7.83,0,0,1,3.54-3.85L631,346.7c-.6-.24-.54-.56.19-1l1.05-.59a2.3,2.3,0,0,1,2-.27l2.21.83c1.4-.71,3.19-1.5,5.36-2.35,2.91-1.14,4.67-1.59,5.32-1.35a.79.79,0,0,1,.33.27l1.41,2.06a.27.27,0,0,1-.11.41c.07,0-1,.28-3.07,1a24.45,24.45,0,0,0-4.51,1.8l8.34,3.17c4-1.26,6.8-2.06,8.43-2.38a17.08,17.08,0,0,1,9.12.3c2.71,1,3.85,2.5,3.44,4.44A8.55,8.55,0,0,1,667.47,357.51ZM645.75,352l-7.42-2.83c-1.8,1.57-1.75,2.71.12,3.43C640.11,353.22,642.55,353,645.75,352Zm8.71.92,7.81,3c1.57-1.64,1.41-2.81-.5-3.53Q659.28,351.41,654.46,352.91Z"/><polygon class="cls-28" points="735.88 332.88 679.81 300.58 560.68 360.79 616.75 393.09 735.88 332.88"/><polygon class="cls-29" points="728.29 333.42 678.42 304.7 567.13 361.04 616.99 389.76 728.29 333.42"/><polygon class="cls-13" points="561.18 367.8 617.25 400.1 616.75 393.09 560.68 360.79 561.18 367.8"/><polygon class="cls-14" points="616.75 393.09 617.25 400.1 736.38 339.76 735.88 332.88 616.75 393.09"/><path class="cls-28" d="M650.63,361.57c-15.81,1.13-29.15-5.26-29.79-14.28s11.65-17.24,27.46-18.36,29.15,5.26,29.8,14.27S666.45,360.44,650.63,361.57Z"/><path class="cls-28" d="M610.69,371.18c-6.51.46-12-2.17-12.27-5.88s4.8-7.11,11.31-7.57,12,2.17,12.27,5.88S617.21,370.71,610.69,371.18Z"/><path class="cls-28" d="M688.16,334.45c-6.52.46-12-2.17-12.27-5.88s4.79-7.1,11.31-7.57,12,2.17,12.27,5.89S694.67,334,688.16,334.45Z"/><path class="cls-30" d="M667,350.4l2,.77c.6.23.58.57-.06,1l-.92.66a2,2,0,0,1-1.88.34l-2-.78a43.51,43.51,0,0,1-5.39,3q-4.32,2.12-5.26,1.75a1.54,1.54,0,0,1-.33-.23l-2.55-2.46c-.12-.18-.1-.33.06-.43-.06,0,1-.35,3.26-1.17a35.11,35.11,0,0,0,5.29-2.36l-8.93-3.41a76.18,76.18,0,0,1-8.11,2.44,17.23,17.23,0,0,1-9.59-.45q-4.51-1.74-3.39-4.83a7.83,7.83,0,0,1,3.54-3.85l-2.23-.86q-.91-.34.18-1l1-.59a2.3,2.3,0,0,1,2-.27l2.21.84a58.34,58.34,0,0,1,5.37-2.36q4.35-1.71,5.31-1.35a.69.69,0,0,1,.33.27l1.41,2.06a.26.26,0,0,1-.1.4c.06,0-1,.29-3.07,1a24.45,24.45,0,0,0-4.51,1.8l8.34,3.17c4-1.27,6.79-2.06,8.42-2.38,3.67-.7,6.7-.6,9.12.3,2.71,1,3.85,2.5,3.44,4.44A8.55,8.55,0,0,1,667,350.4Zm-21.72-5.52-7.42-2.83c-1.79,1.57-1.74,2.71.13,3.43C639.6,346.11,642,345.92,645.24,344.88Zm8.71.92,7.81,3c1.57-1.64,1.41-2.81-.49-3.53C659.6,344.61,657.17,344.8,654,345.8Z"/><path class="cls-31" d="M666.85,348.77l2,.77c.61.23.59.57-.06,1l-.91.66a2,2,0,0,1-1.88.34l-2-.78a43.51,43.51,0,0,1-5.39,3q-4.32,2.12-5.27,1.75a1.54,1.54,0,0,1-.33-.23l-2.54-2.46c-.12-.18-.11-.33.06-.44-.07.05,1-.34,3.26-1.16a34.93,34.93,0,0,0,5.28-2.36l-8.93-3.41a75.48,75.48,0,0,1-8.11,2.44,17.24,17.24,0,0,1-9.59-.45c-3-1.16-4.14-2.77-3.38-4.84a7.83,7.83,0,0,1,3.53-3.84l-2.23-.86c-.61-.23-.55-.55.19-1l1-.59a2.31,2.31,0,0,1,2-.27l2.21.83c1.41-.71,3.2-1.5,5.37-2.35q4.35-1.71,5.31-1.35a.69.69,0,0,1,.33.27l1.41,2.06a.26.26,0,0,1-.1.4c.07,0-1,.29-3.07,1a24.45,24.45,0,0,0-4.51,1.8l8.34,3.17c4-1.27,6.8-2.06,8.42-2.38q5.51-1.05,9.13.3c2.71,1,3.85,2.49,3.43,4.44A8.52,8.52,0,0,1,666.85,348.77Zm-21.72-5.52-7.43-2.83c-1.79,1.57-1.74,2.71.13,3.43Q640.32,344.8,645.13,343.25Zm8.7.92,7.82,3c1.57-1.64,1.41-2.81-.5-3.53Q658.66,342.67,653.83,344.17Z"/><polygon class="cls-28" points="735.24 323.82 679.16 291.52 560.03 351.72 616.11 384.02 735.24 323.82"/><polygon class="cls-29" points="727.64 324.36 677.77 295.64 566.48 351.98 616.35 380.7 727.64 324.36"/><polygon class="cls-13" points="560.53 358.73 616.61 391.03 616.11 384.02 560.03 351.72 560.53 358.73"/><polygon class="cls-14" points="616.11 384.02 616.61 391.03 735.73 330.7 735.24 323.82 616.11 384.02"/><path class="cls-28" d="M650,352.51c-15.81,1.13-29.15-5.27-29.8-14.28s11.66-17.24,27.47-18.37,29.15,5.27,29.79,14.28S665.8,351.38,650,352.51Z"/><path class="cls-28" d="M610.05,362.12c-6.52.46-12-2.17-12.28-5.89s4.8-7.1,11.32-7.56,12,2.17,12.27,5.88S616.56,361.65,610.05,362.12Z"/><path class="cls-28" d="M687.51,325.39c-6.51.46-12-2.17-12.27-5.89s4.8-7.09,11.31-7.56,12,2.17,12.27,5.88S694,324.92,687.51,325.39Z"/><path class="cls-30" d="M666.32,341.34l2,.76c.61.23.59.58-.06,1l-.91.65a1.94,1.94,0,0,1-1.88.35l-2-.79a42,42,0,0,1-5.39,3c-2.89,1.41-4.64,2-5.27,1.75a1.54,1.54,0,0,1-.33-.23l-2.54-2.46c-.12-.18-.11-.33.06-.44-.07,0,1-.34,3.26-1.16a34.93,34.93,0,0,0,5.28-2.36l-8.93-3.41a75.48,75.48,0,0,1-8.11,2.44,17.24,17.24,0,0,1-9.59-.45c-3-1.16-4.14-2.77-3.38-4.84a7.89,7.89,0,0,1,3.53-3.85l-2.23-.85c-.61-.23-.55-.55.19-1l1-.59a2.35,2.35,0,0,1,2-.28l2.21.84q2.12-1.08,5.37-2.35,4.35-1.71,5.31-1.35a.69.69,0,0,1,.33.27l1.41,2.06a.26.26,0,0,1-.1.4c.07,0-.95.29-3.07,1a24.45,24.45,0,0,0-4.51,1.8l8.34,3.17c4-1.27,6.8-2.06,8.42-2.38q5.5-1,9.13.3c2.71,1,3.85,2.49,3.43,4.43A8.51,8.51,0,0,1,666.32,341.34Zm-21.72-5.52L637.17,333c-1.79,1.56-1.74,2.71.13,3.42Q639.79,337.37,644.6,335.82Zm8.7.92,7.82,3c1.57-1.64,1.41-2.82-.5-3.54C659,335.54,656.52,335.74,653.3,336.74Z"/><path class="cls-31" d="M666.2,339.71l2,.77c.6.22.58.57-.06,1l-.92.65a1.93,1.93,0,0,1-1.88.35l-2-.79a42,42,0,0,1-5.39,3c-2.88,1.41-4.64,2-5.26,1.74a.94.94,0,0,1-.33-.22l-2.55-2.46a.28.28,0,0,1,.06-.44c-.07.05,1-.34,3.26-1.16a34,34,0,0,0,5.29-2.37l-8.94-3.4a75.48,75.48,0,0,1-8.11,2.44,17.2,17.2,0,0,1-9.58-.45c-3-1.16-4.15-2.78-3.39-4.84a7.91,7.91,0,0,1,3.54-3.85l-2.24-.85c-.6-.23-.54-.55.19-1l1-.59a2.34,2.34,0,0,1,2-.28l2.21.84c1.4-.72,3.19-1.5,5.36-2.36,2.91-1.14,4.67-1.59,5.32-1.34a.79.79,0,0,1,.33.27l1.41,2.06a.26.26,0,0,1-.11.4c.07,0-1,.29-3.07,1a24.45,24.45,0,0,0-4.51,1.8l8.34,3.17c4-1.27,6.8-2.06,8.43-2.38a17.08,17.08,0,0,1,9.12.3c2.71,1,3.85,2.49,3.44,4.43A8.53,8.53,0,0,1,666.2,339.71Zm-21.72-5.52-7.42-2.83c-1.8,1.56-1.75,2.7.12,3.42C638.84,335.42,641.28,335.22,644.48,334.19Zm8.71.92,7.81,3c1.57-1.64,1.41-2.82-.5-3.54Q658,333.6,653.19,335.11Z"/><polygon class="cls-28" points="734.59 314.75 678.51 282.45 559.38 342.66 615.46 374.96 734.59 314.75"/><polygon class="cls-29" points="726.99 315.3 677.13 286.58 565.84 342.92 615.7 371.64 726.99 315.3"/><polygon class="cls-13" points="559.88 349.67 615.96 381.97 615.46 374.96 559.38 342.66 559.88 349.67"/><polygon class="cls-14" points="615.46 374.96 615.96 381.97 735.08 321.64 734.59 314.75 615.46 374.96"/><path class="cls-28" d="M649.34,343.45c-15.81,1.12-29.15-5.27-29.79-14.28S631.2,311.93,647,310.8s29.15,5.27,29.79,14.28S665.15,342.32,649.34,343.45Z"/><path class="cls-28" d="M609.4,353.05c-6.51.47-12-2.17-12.28-5.88s4.81-7.1,11.32-7.56,12,2.16,12.27,5.88S615.91,352.59,609.4,353.05Z"/><path class="cls-28" d="M686.86,316.33c-6.51.46-12-2.17-12.27-5.89s4.8-7.1,11.31-7.56,12,2.17,12.28,5.88S693.38,315.86,686.86,316.33Z"/><path class="cls-30" d="M665.67,332.27l2,.77c.6.23.58.58-.06,1l-.92.65a1.9,1.9,0,0,1-1.88.34l-2.05-.78a44.65,44.65,0,0,1-5.39,3c-2.88,1.41-4.64,2-5.26,1.74a.94.94,0,0,1-.33-.22l-2.55-2.47c-.12-.18-.1-.32.06-.43-.07,0,1-.34,3.26-1.16a34,34,0,0,0,5.29-2.37L648.93,329a78.88,78.88,0,0,1-8.11,2.45,17.2,17.2,0,0,1-9.58-.45c-3-1.16-4.15-2.78-3.39-4.84a7.87,7.87,0,0,1,3.54-3.85l-2.24-.85c-.6-.23-.54-.55.19-1l1-.58a2.31,2.31,0,0,1,2-.28l2.21.84c1.4-.72,3.19-1.5,5.36-2.36,2.91-1.14,4.67-1.59,5.32-1.35a.91.91,0,0,1,.33.28l1.41,2a.27.27,0,0,1-.11.41c.07,0-.95.28-3.07,1a24.45,24.45,0,0,0-4.51,1.8l8.34,3.17a87.09,87.09,0,0,1,8.43-2.38c3.66-.7,6.7-.61,9.12.3,2.71,1,3.85,2.49,3.44,4.43A8.48,8.48,0,0,1,665.67,332.27ZM644,326.76l-7.42-2.83c-1.8,1.56-1.75,2.7.12,3.42C638.31,328,640.75,327.79,644,326.76Zm8.71.92,7.81,3c1.57-1.64,1.41-2.82-.5-3.54Q657.48,326.17,652.66,327.68Z"/><path class="cls-31" d="M665.55,330.64l2,.77c.6.23.58.58-.06,1l-.92.65a1.89,1.89,0,0,1-1.87.34l-2.05-.78a44.65,44.65,0,0,1-5.39,3c-2.89,1.41-4.64,2-5.27,1.74a1,1,0,0,1-.33-.23l-2.55-2.45c-.12-.19-.1-.33.06-.44-.06,0,1-.34,3.26-1.16a34,34,0,0,0,5.29-2.37l-8.93-3.41a76.18,76.18,0,0,1-8.11,2.44,17.15,17.15,0,0,1-9.59-.44c-3-1.16-4.14-2.78-3.39-4.84a7.92,7.92,0,0,1,3.54-3.85l-2.23-.85c-.61-.23-.55-.55.18-1l1-.58a2.28,2.28,0,0,1,2-.28l2.21.84c1.4-.72,3.19-1.5,5.37-2.36q4.35-1.71,5.31-1.35a.82.82,0,0,1,.33.27l1.41,2.06a.27.27,0,0,1-.1.41c.06,0-1,.28-3.07,1a24.45,24.45,0,0,0-4.51,1.8l8.34,3.17a87.14,87.14,0,0,1,8.42-2.38c3.67-.7,6.7-.61,9.12.3,2.71,1,3.85,2.49,3.44,4.43A8.45,8.45,0,0,1,665.55,330.64Zm-21.72-5.52-7.42-2.82c-1.79,1.56-1.74,2.7.13,3.42Q639,326.68,643.83,325.12Zm8.71.93,7.81,3q2.35-2.46-.49-3.54C658.19,324.85,655.76,325,652.54,326.05Z"/><polygon class="cls-28" points="733.95 305.69 677.87 273.39 558.74 333.6 614.81 365.9 733.95 305.69"/><polygon class="cls-29" points="726.35 306.24 676.48 277.51 565.19 333.85 615.05 362.58 726.35 306.24"/><polygon class="cls-13" points="559.24 340.61 615.31 372.91 614.81 365.9 558.74 333.6 559.24 340.61"/><polygon class="cls-14" points="614.81 365.9 615.31 372.91 734.44 312.58 733.95 305.69 614.81 365.9"/><path class="cls-28" d="M648.69,334.38c-15.81,1.13-29.15-5.26-29.79-14.28s11.66-17.23,27.47-18.36S675.51,307,676.16,316,664.51,333.26,648.69,334.38Z"/><path class="cls-28" d="M608.75,344c-6.51.47-12-2.17-12.27-5.88s4.8-7.1,11.31-7.57,12,2.17,12.28,5.89S615.27,343.53,608.75,344Z"/><path class="cls-28" d="M686.22,307.26c-6.52.47-12-2.16-12.27-5.88s4.79-7.1,11.31-7.56,12,2.17,12.27,5.88S692.73,306.8,686.22,307.26Z"/><path class="cls-30" d="M665,323.21l2,.77c.6.23.58.57-.06,1l-.92.66a1.91,1.91,0,0,1-1.87.34l-2.05-.78a44.65,44.65,0,0,1-5.39,3c-2.89,1.4-4.64,2-5.27,1.74a1,1,0,0,1-.33-.23l-2.55-2.46c-.12-.18-.1-.32.06-.43-.06,0,1-.35,3.26-1.16a34,34,0,0,0,5.29-2.37l-8.93-3.41a76.18,76.18,0,0,1-8.11,2.44,17.24,17.24,0,0,1-9.59-.44c-3-1.16-4.14-2.78-3.39-4.84a7.88,7.88,0,0,1,3.54-3.85l-2.23-.85c-.61-.23-.55-.56.18-1l1-.59a2.3,2.3,0,0,1,2-.27l2.21.84a58.34,58.34,0,0,1,5.37-2.36q4.35-1.71,5.31-1.35a.82.82,0,0,1,.33.27l1.41,2.06a.27.27,0,0,1-.1.41c.06,0-1,.28-3.07,1a25,25,0,0,0-4.51,1.81l8.34,3.17a87.14,87.14,0,0,1,8.42-2.38c3.67-.7,6.7-.61,9.12.3,2.71,1,3.85,2.49,3.44,4.43A8.45,8.45,0,0,1,665,323.21Zm-21.72-5.52-7.42-2.83c-1.79,1.57-1.74,2.71.13,3.43Q638.5,319.25,643.3,317.69Zm8.71.93,7.81,3q2.35-2.46-.49-3.54C657.66,317.42,655.23,317.61,652,318.62Z"/><path class="cls-31" d="M664.91,321.58l2,.77c.6.23.58.57-.07,1L666,324a1.91,1.91,0,0,1-1.88.34L662,323.6a44.65,44.65,0,0,1-5.39,3c-2.88,1.4-4.64,2-5.26,1.74a1,1,0,0,1-.33-.23l-2.55-2.46c-.12-.18-.11-.32.06-.43-.07,0,1-.35,3.26-1.16a34.48,34.48,0,0,0,5.29-2.37l-8.94-3.41a75.48,75.48,0,0,1-8.11,2.44,17.25,17.25,0,0,1-9.59-.44c-3-1.16-4.14-2.78-3.38-4.84a7.8,7.8,0,0,1,3.53-3.85l-2.23-.85c-.61-.23-.55-.56.19-1l1-.59a2.31,2.31,0,0,1,2-.27l2.21.84c1.41-.72,3.2-1.5,5.37-2.36q4.35-1.71,5.32-1.35a.87.87,0,0,1,.32.27l1.41,2.06a.26.26,0,0,1-.1.41c.07,0-.95.28-3.07,1a24.31,24.31,0,0,0-4.51,1.81l8.34,3.17c4-1.27,6.8-2.07,8.42-2.38q5.5-1.06,9.13.3,4.06,1.51,3.43,4.43A8.49,8.49,0,0,1,664.91,321.58Zm-21.72-5.52-7.43-2.83c-1.79,1.57-1.74,2.71.13,3.43C637.55,317.29,640,317.1,643.19,316.06Zm8.7.93,7.82,3c1.57-1.64,1.41-2.82-.5-3.54Q656.72,315.48,651.89,317Z"/></g></g></svg>